<svg width="147" height="28" viewBox="0 0 147 28" fill="FFFFFF" xmlns="http://www.w3.org/2000/svg">
<path d="M0.2 28V-1.90735e-06H3.48L16.04 21.16H14.28L26.68 -1.90735e-06H29.96L30 28H26.16L26.12 6.04H27.04L16 24.6H14.16L3.04 6.04H4.04V28H0.2ZM40.1631 28L52.8431 -1.90735e-06H56.8031L69.5231 28H65.3231L54.0031 2.24H55.6031L44.2831 28H40.1631ZM45.5631 21L46.6431 17.8H62.4031L63.5631 21H45.5631ZM79.7 28V-1.90735e-06H83.7V24.52H98.86V28H79.7ZM109.45 28V-1.90735e-06H113.45V28H109.45ZM133.393 28V3.48H123.793V-1.90735e-06H146.953V3.48H137.353V28H133.393Z" fill="black"/>
</svg>
